<svg id="PlayStore" xmlns="http://www.w3.org/2000/svg" xmlns:xlink="http://www.w3.org/1999/xlink" width="234" height="69.049" viewBox="0 0 234 69.049">
  <defs>
    <linearGradient id="linear-gradient" x1="2.472" y1="1.035" x2="2.361" y2="1.005" gradientUnits="objectBoundingBox">
      <stop offset="0" stop-color="#00a0ff"/>
      <stop offset="0.007" stop-color="#00a1ff"/>
      <stop offset="0.26" stop-color="#00beff"/>
      <stop offset="0.512" stop-color="#00d2ff"/>
      <stop offset="0.76" stop-color="#00dfff"/>
      <stop offset="1" stop-color="#00e3ff"/>
    </linearGradient>
    <linearGradient id="linear-gradient-2" x1="1.95" y1="1.879" x2="1.69" y2="1.879" gradientUnits="objectBoundingBox">
      <stop offset="0" stop-color="#ffe000"/>
      <stop offset="0.409" stop-color="#ffbd00"/>
      <stop offset="0.775" stop-color="orange"/>
      <stop offset="1" stop-color="#ff9c00"/>
    </linearGradient>
    <linearGradient id="linear-gradient-3" x1="1.926" y1="0.946" x2="1.835" y2="0.793" gradientUnits="objectBoundingBox">
      <stop offset="0" stop-color="#ff3a44"/>
      <stop offset="1" stop-color="#c31162"/>
    </linearGradient>
    <linearGradient id="linear-gradient-4" x1="1.856" y1="2.093" x2="1.897" y2="2.025" gradientUnits="objectBoundingBox">
      <stop offset="0" stop-color="#32a071"/>
      <stop offset="0.068" stop-color="#2da771"/>
      <stop offset="0.476" stop-color="#15cf74"/>
      <stop offset="0.801" stop-color="#06e775"/>
      <stop offset="1" stop-color="#00f076"/>
    </linearGradient>
  </defs>
  <path id="Path_3018" data-name="Path 3018" d="M225.33,69.049H8.67A8.674,8.674,0,0,1,0,60.418V8.631A8.663,8.663,0,0,1,8.67,0H225.33A8.666,8.666,0,0,1,234,8.631V60.418A8.677,8.677,0,0,1,225.33,69.049Z" fill-rule="evenodd"/>
  <path id="Path_3019" data-name="Path 3019" d="M225.33,1.382a7.288,7.288,0,0,1,7.288,7.249V60.418a7.274,7.274,0,0,1-7.288,7.249H8.67a7.288,7.288,0,0,1-7.288-7.249V8.631A7.274,7.274,0,0,1,8.67,1.382Zm0-1.382H8.67A8.674,8.674,0,0,0,0,8.631V60.418a8.663,8.663,0,0,0,8.67,8.631H225.33A8.666,8.666,0,0,0,234,60.418V8.631A8.677,8.677,0,0,0,225.33,0Z" fill="#a6a6a6" fill-rule="evenodd"/>
  <path id="Path_3020" data-name="Path 3020" d="M1706.358,282.462a5.254,5.254,0,0,1-3.922-1.623,5.53,5.53,0,0,1-1.584-3.96,5.4,5.4,0,0,1,1.584-3.956,5.238,5.238,0,0,1,3.918-1.623,5.309,5.309,0,0,1,3.922,1.623,5.733,5.733,0,0,1,0,7.912A5.21,5.21,0,0,1,1706.358,282.462Zm-46.5,0a5.447,5.447,0,0,1-3.939-1.6,5.579,5.579,0,0,1,3.939-9.557,5.49,5.49,0,0,1,2.2.456,4.447,4.447,0,0,1,1.674,1.2l.1.125-1.167,1.145-.12-.142a3.315,3.315,0,0,0-2.708-1.167,3.741,3.741,0,0,0-2.7,1.1,4.184,4.184,0,0,0,0,5.734,3.946,3.946,0,0,0,5.471,0,2.98,2.98,0,0,0,.792-1.8h-3.741v-1.61h5.346l.022.146a5.97,5.97,0,0,1,.077.809,4.848,4.848,0,0,1-1.334,3.573A5.209,5.209,0,0,1,1659.861,282.462Zm61.821-.228h-1.649l-5.05-8.08.043,1.455v6.621h-1.649v-10.7h1.881l.052.082,4.748,7.611-.043-1.451v-6.242h1.666Zm-27.714,0h-1.67v-9.092h-2.9v-1.61h7.46v1.61h-2.9v9.092Zm-5.927,0h-1.666v-10.7h1.666Zm-9.363,0h-1.665v-9.092h-2.9v-1.61h7.46v1.61h-2.9Zm-5.618-.017h-6.388V271.532h6.388v1.61h-4.718v2.936h4.257v1.593h-4.257v2.936h4.718Zm30.6-2.484a3.687,3.687,0,0,0,2.7,1.119,3.594,3.594,0,0,0,2.7-1.119,4.242,4.242,0,0,0,0-5.7,3.693,3.693,0,0,0-2.7-1.119,3.577,3.577,0,0,0-2.695,1.119,4.248,4.248,0,0,0-.008,5.7Z" transform="translate(-1583.086 -259.621)" fill="#fff"/>
  <path id="Path_3021" data-name="Path 3021" d="M1693.424,691.153a7.344,7.344,0,1,0,7.366,7.344A7.229,7.229,0,0,0,1693.424,691.153Zm0,11.778a4.463,4.463,0,1,1,4.141-4.451A4.25,4.25,0,0,1,1693.424,702.931Zm-16.07-11.778a7.344,7.344,0,1,0,7.365,7.344A7.229,7.229,0,0,0,1677.354,691.153Zm0,11.778a4.463,4.463,0,1,1,4.141-4.451A4.25,4.25,0,0,1,1677.354,702.931Zm-19.122-9.535V696.5h7.46a6.554,6.554,0,0,1-1.687,3.913,7.612,7.612,0,0,1-5.756,2.282,8.288,8.288,0,0,1,0-16.574,7.963,7.963,0,0,1,5.618,2.226l2.2-2.2a10.838,10.838,0,0,0-7.8-3.147,11.4,11.4,0,1,0,0,22.79,10.431,10.431,0,0,0,7.96-3.2,10.314,10.314,0,0,0,2.7-7.288,9.586,9.586,0,0,0-.172-1.937h-10.53S1658.233,693.4,1658.233,693.4Zm78.213,2.419a6.823,6.823,0,0,0-6.289-4.679,6.977,6.977,0,0,0-6.922,7.344,7.178,7.178,0,0,0,7.288,7.344,7.29,7.29,0,0,0,6.117-3.259l-2.493-1.67a4.176,4.176,0,0,1-3.608,2.032,3.75,3.75,0,0,1-3.568-2.226l9.819-4.068S1736.446,695.815,1736.446,695.815Zm-10.012,2.454a4.031,4.031,0,0,1,3.835-4.279,2.831,2.831,0,0,1,2.725,1.554Zm-7.977,7.116h3.224V683.809h-3.224Zm-5.295-12.6h-.116a5.086,5.086,0,0,0-3.875-1.649,7.344,7.344,0,0,0,0,14.675,5.072,5.072,0,0,0,3.875-1.67h.116V705.2c0,2.8-1.5,4.314-3.913,4.314a4.072,4.072,0,0,1-3.7-2.609l-2.8,1.171a7.009,7.009,0,0,0,6.5,4.335c3.78,0,6.982-2.225,6.982-7.654V691.575h-3.048v1.21Zm-3.7,10.146a4.465,4.465,0,0,1,0-8.9c2.2,0,3.913,1.9,3.913,4.469C1713.394,701.072,1711.668,702.931,1709.459,702.931Zm42.084-19.122h-7.71v21.576h3.224v-8.171h4.49a6.713,6.713,0,1,0,0-13.405Zm.1,10.392h-4.585v-7.4h4.585a3.7,3.7,0,1,1,0,7.4Zm19.909-3.086a6.072,6.072,0,0,0-5.755,3.3l2.858,1.188a3.066,3.066,0,0,1,2.936-1.593c1.67,0,3.358,1,3.4,2.781v.228a7.22,7.22,0,0,0-3.358-.827c-3.086,0-6.216,1.687-6.216,4.852,0,2.9,2.531,4.757,5.351,4.757a4.538,4.538,0,0,0,4.1-2.109h.117v1.67h3.108v-8.265C1778.087,693.245,1775.228,691.115,1771.547,691.115Zm-.4,11.817c-1.055,0-2.532-.517-2.532-1.842,0-1.67,1.842-2.3,3.414-2.3a5.6,5.6,0,0,1,2.936.727A3.882,3.882,0,0,1,1771.143,702.931Zm18.282-11.356-3.7,9.359h-.116l-3.835-9.359h-3.47l5.756,13.082-3.281,7.271h3.358l8.855-20.353Zm-29.023,13.81h3.224V683.809H1760.4Z" transform="translate(-1575.813 -653.598)" fill="#fff" fill-rule="evenodd"/>
  <path id="Path_3022" data-name="Path 3022" d="M400.888,299.516a3.5,3.5,0,0,0-.788,2.437v38.171a3.328,3.328,0,0,0,.805,2.415l.133.116,21.386-21.386v-.478l-21.4-21.391Z" transform="translate(-382.877 -286.512)" fill-rule="evenodd" fill="url(#linear-gradient)"/>
  <path id="Path_3023" data-name="Path 3023" d="M925.433,645.265l-7.133-7.133v-.5l7.133-7.133.155.095,8.438,4.8c2.415,1.36,2.415,3.607,0,4.985l-8.438,4.8Z" transform="translate(-878.769 -603.358)" fill-rule="evenodd" fill="url(#linear-gradient-2)"/>
  <path id="Path_3024" data-name="Path 3024" d="M447.208,809.288,439.92,802,418.4,823.52c.788.844,2.109.938,3.586.116l25.222-14.348" transform="translate(-400.389 -767.476)" fill-rule="evenodd" fill="url(#linear-gradient-3)"/>
  <path id="Path_3025" data-name="Path 3025" d="M447.208,301.384l-25.222-14.326c-1.477-.844-2.8-.727-3.586.116l21.52,21.5Z" transform="translate(-400.389 -274.148)" fill-rule="evenodd" fill="url(#linear-gradient-4)"/>
  <path id="Path_3026" data-name="Path 3026" d="M447.435,967.7l-25.05,14.232c-1.4.805-2.648.749-3.452.017l-.134.134.134.116c.8.727,2.053.788,3.452-.017l25.222-14.326Z" transform="translate(-400.771 -926.042)" fill-rule="evenodd" opacity="0.2"/>
  <path id="Path_3027" data-name="Path 3027" d="M1092.114,804.243l-8.614,4.89.155.155,8.437-4.8a3.023,3.023,0,0,0,1.8-2.493A3.105,3.105,0,0,1,1092.114,804.243Z" transform="translate(-1036.858 -767.475)" fill-rule="evenodd" opacity="0.12"/>
  <path id="Path_3028" data-name="Path 3028" d="M404.474,287.141l33.659,19.122a3.172,3.172,0,0,1,1.8,2.243,3.023,3.023,0,0,0-1.8-2.492l-33.659-19.122c-2.415-1.382-4.374-.228-4.374,2.531v.25C400.1,286.908,402.059,285.776,404.474,287.141Z" transform="translate(-382.877 -273.981)" fill="#fff" fill-rule="evenodd" opacity="0.25"/>
</svg>
