<svg id="AppStore" xmlns="http://www.w3.org/2000/svg" width="234" height="69.333" viewBox="0 0 234 69.333">
  <path id="Path_2993" data-name="Path 2993" d="M225.675,69.333H8.2a8.216,8.216,0,0,1-8.2-8.2V8.192A8.2,8.2,0,0,1,8.2,0H225.675A8.316,8.316,0,0,1,234,8.192V61.129a8.327,8.327,0,0,1-8.325,8.2Z" fill="#a6a6a6"/>
  <path id="Path_2994" data-name="Path 2994" d="M231.669,60.479a6.638,6.638,0,0,1-6.646,6.639H7.544A6.647,6.647,0,0,1,.89,60.479V7.537A6.656,6.656,0,0,1,7.544.89H225.022a6.646,6.646,0,0,1,6.646,6.647l0,52.941Z" transform="translate(0.653 0.653)"/>
  <g id="Group_44794" data-name="Group 44794" transform="translate(22.173 10.776)">
    <g id="Group_44793" data-name="Group 44793">
      <path id="Path_2995" data-name="Path 2995" d="M42.841,25.22a10.048,10.048,0,0,1,4.786-8.431,10.291,10.291,0,0,0-8.105-4.382c-3.409-.359-6.717,2.04-8.453,2.04-1.771,0-4.446-2.005-7.329-1.947a10.791,10.791,0,0,0-9.083,5.54c-3.928,6.8-1,16.793,2.765,22.289,1.882,2.692,4.082,5.7,6.961,5.592,2.817-.116,3.869-1.8,7.268-1.8,3.368,0,4.356,1.8,7.292,1.728,3.023-.049,4.926-2.7,6.743-5.42a22.243,22.243,0,0,0,3.084-6.28A9.713,9.713,0,0,1,42.841,25.22Z" transform="translate(-12.792 -1.704)" fill="#fff"/>
      <path id="Path_2996" data-name="Path 2996" d="M29.73,13.3a9.89,9.89,0,0,0,2.264-7.088,10.075,10.075,0,0,0-6.514,3.37,9.412,9.412,0,0,0-2.323,6.826A8.321,8.321,0,0,0,29.73,13.3Z" transform="translate(-5.228 -6.217)" fill="#fff"/>
    </g>
  </g>
  <g id="Group_44795" data-name="Group 44795" transform="translate(73.511 31.202)">
    <path id="Path_2997" data-name="Path 2997" d="M61.884,41.263H57.948l-2.156-6.776H48.3l-2.054,6.776H42.41L49.836,18.2h4.586Zm-6.743-9.618-1.95-6.023q-.309-.923-1.163-4.345h-.069q-.341,1.472-1.1,4.345l-1.915,6.023Z" transform="translate(-42.41 -17.858)" fill="#fff"/>
    <path id="Path_2998" data-name="Path 2998" d="M71.439,30.164a9.452,9.452,0,0,1-2.293,6.706,6.705,6.705,0,0,1-5.1,2.191A5.1,5.1,0,0,1,59.323,36.7h-.069v8.762h-3.7V27.528q0-2.668-.137-5.476h3.25l.206,2.636h.069a6.575,6.575,0,0,1,10.523-.652A9.164,9.164,0,0,1,71.439,30.164Zm-3.765.135a6.848,6.848,0,0,0-1.1-4,3.783,3.783,0,0,0-3.217-1.643,3.843,3.843,0,0,0-2.48.907,4.2,4.2,0,0,0-1.454,2.38,4.838,4.838,0,0,0-.172,1.127v2.773A4.444,4.444,0,0,0,60.368,34.9a3.688,3.688,0,0,0,2.891,1.25,3.783,3.783,0,0,0,3.25-1.609A7.079,7.079,0,0,0,67.674,30.3Z" transform="translate(-32.869 -15.28)" fill="#fff"/>
    <path id="Path_2999" data-name="Path 2999" d="M82.475,30.164a9.445,9.445,0,0,1-2.295,6.706,6.7,6.7,0,0,1-5.1,2.191A5.1,5.1,0,0,1,70.361,36.7h-.069v8.762H66.6V27.528q0-2.668-.137-5.476h3.25l.206,2.636h.069a6.577,6.577,0,0,1,10.525-.652A9.19,9.19,0,0,1,82.475,30.164ZM78.71,30.3a6.848,6.848,0,0,0-1.1-4A3.778,3.778,0,0,0,74.4,24.652a3.848,3.848,0,0,0-2.482.907,4.2,4.2,0,0,0-1.453,2.38,4.933,4.933,0,0,0-.172,1.127v2.773A4.458,4.458,0,0,0,71.4,34.9a3.7,3.7,0,0,0,2.895,1.25,3.783,3.783,0,0,0,3.25-1.609A7.079,7.079,0,0,0,78.71,30.3Z" transform="translate(-24.774 -15.28)" fill="#fff"/>
    <path id="Path_3000" data-name="Path 3000" d="M94.093,34.937a6.148,6.148,0,0,1-2.049,4.791,9.08,9.08,0,0,1-6.283,2.019,11,11,0,0,1-5.978-1.437l.856-3.08A10.13,10.13,0,0,0,85.981,38.7a5.051,5.051,0,0,0,3.253-.943,3.079,3.079,0,0,0,1.161-2.52,3.213,3.213,0,0,0-.959-2.364,8.911,8.911,0,0,0-3.182-1.784Q80.2,28.833,80.2,24.478a5.853,5.853,0,0,1,2.123-4.661A8.371,8.371,0,0,1,87.97,18,11.2,11.2,0,0,1,93.2,19.1l-.924,3.013a9.083,9.083,0,0,0-4.415-1.061,4.469,4.469,0,0,0-3.044.959A2.739,2.739,0,0,0,83.9,24.1a2.819,2.819,0,0,0,1.059,2.259,11.97,11.97,0,0,0,3.356,1.78,11.385,11.385,0,0,1,4.38,2.8A5.859,5.859,0,0,1,94.093,34.937Z" transform="translate(-15.003 -18.001)" fill="#fff"/>
    <path id="Path_3001" data-name="Path 3001" d="M99.374,26.435H95.3V34.51q0,3.081,2.156,3.08a6.572,6.572,0,0,0,1.641-.172l.1,2.806a8.373,8.373,0,0,1-2.874.409A4.434,4.434,0,0,1,92.9,39.3q-1.23-1.336-1.232-4.484V26.431H89.244V23.658h2.427V20.612l3.63-1.1v4.141h4.073v2.777Z" transform="translate(-8.065 -16.889)" fill="#fff"/>
    <path id="Path_3002" data-name="Path 3002" d="M112.584,30.231a9.124,9.124,0,0,1-2.191,6.3,7.822,7.822,0,0,1-6.094,2.532,7.438,7.438,0,0,1-5.833-2.428,8.844,8.844,0,0,1-2.174-6.126,9.035,9.035,0,0,1,2.241-6.33,7.756,7.756,0,0,1,6.039-2.465,7.6,7.6,0,0,1,5.886,2.43A8.744,8.744,0,0,1,112.584,30.231Zm-3.834.12a7.482,7.482,0,0,0-.991-3.947,3.65,3.65,0,0,0-3.318-1.99,3.706,3.706,0,0,0-3.389,1.99,7.625,7.625,0,0,0-.991,4.016,7.471,7.471,0,0,0,.991,3.945,3.777,3.777,0,0,0,6.673-.035A7.508,7.508,0,0,0,108.749,30.351Z" transform="translate(-2.897 -15.28)" fill="#fff"/>
    <path id="Path_3003" data-name="Path 3003" d="M116.386,25.3a6.417,6.417,0,0,0-1.165-.1,3.492,3.492,0,0,0-3.013,1.473,5.538,5.538,0,0,0-.924,3.285v8.727h-3.694l.035-11.395q0-2.876-.139-5.236h3.219l.135,3.182h.1a5.688,5.688,0,0,1,1.848-2.635,4.468,4.468,0,0,1,2.671-.891,5.933,5.933,0,0,1,.924.068V25.3Z" transform="translate(5.313 -15.28)" fill="#fff"/>
    <path id="Path_3004" data-name="Path 3004" d="M128.41,29.6a8.668,8.668,0,0,1-.135,1.676H117.188a4.826,4.826,0,0,0,1.609,3.767,5.492,5.492,0,0,0,3.626,1.163,12.262,12.262,0,0,0,4.486-.787l.579,2.565a13.868,13.868,0,0,1-5.576,1.028,8.078,8.078,0,0,1-6.077-2.276,8.4,8.4,0,0,1-2.207-6.108,9.529,9.529,0,0,1,2.056-6.263,7.082,7.082,0,0,1,5.815-2.668,6.2,6.2,0,0,1,5.444,2.668A9,9,0,0,1,128.41,29.6Zm-3.524-.959a5.02,5.02,0,0,0-.718-2.841,3.228,3.228,0,0,0-2.945-1.541,3.506,3.506,0,0,0-2.941,1.506,5.515,5.515,0,0,0-1.094,2.874h7.7Z" transform="translate(9.816 -15.294)" fill="#fff"/>
  </g>
  <g id="Group_44797" data-name="Group 44797" transform="translate(75.705 11.364)">
    <g id="Group_44796" data-name="Group 44796">
      <path id="Path_3005" data-name="Path 3005" d="M52.991,12.329a5.69,5.69,0,0,1-1.834,4.607,7.294,7.294,0,0,1-4.824,1.428,22.366,22.366,0,0,1-2.657-.135V7.082A19.609,19.609,0,0,1,46.8,6.846a6.745,6.745,0,0,1,4.489,1.295A5.233,5.233,0,0,1,52.991,12.329Zm-1.915.05a4.143,4.143,0,0,0-1.05-3.044,4.141,4.141,0,0,0-3.07-1.059,7.688,7.688,0,0,0-1.463.118v8.474a9.591,9.591,0,0,0,1.227.05,4.3,4.3,0,0,0,3.219-1.16A4.644,4.644,0,0,0,51.076,12.379Z" transform="translate(-43.676 -6.343)" fill="#fff"/>
      <path id="Path_3006" data-name="Path 3006" d="M58.295,12.807A4.482,4.482,0,0,1,57.218,15.9a3.842,3.842,0,0,1-2.993,1.245,3.652,3.652,0,0,1-2.867-1.194,4.35,4.35,0,0,1-1.066-3.009,4.438,4.438,0,0,1,1.1-3.11,3.817,3.817,0,0,1,2.967-1.21,3.737,3.737,0,0,1,2.893,1.193A4.314,4.314,0,0,1,58.295,12.807Zm-1.884.059a3.7,3.7,0,0,0-.487-1.94,1.794,1.794,0,0,0-1.629-.978,1.822,1.822,0,0,0-1.666.978,3.745,3.745,0,0,0-.487,1.973,3.7,3.7,0,0,0,.487,1.94,1.833,1.833,0,0,0,1.648.978,1.813,1.813,0,0,0,1.629-.995A3.672,3.672,0,0,0,56.411,12.866Z" transform="translate(-38.824 -5.04)" fill="#fff"/>
      <path id="Path_3007" data-name="Path 3007" d="M67.774,8.719,65.217,16.89H63.553l-1.059-3.548a26.557,26.557,0,0,1-.657-2.64H61.8a19.326,19.326,0,0,1-.657,2.64L60.022,16.89H58.339l-2.4-8.171H57.8l.924,3.884q.335,1.378.555,2.623h.033q.2-1.024.674-2.605l1.16-3.9h1.48l1.111,3.817q.4,1.4.655,2.69h.05A25.7,25.7,0,0,1,65,12.538l.991-3.817h1.784Z" transform="translate(-34.686 -4.97)" fill="#fff"/>
      <path id="Path_3008" data-name="Path 3008" d="M71.228,16.963H69.412v-4.68q0-2.163-1.647-2.163a1.639,1.639,0,0,0-1.312.595,2.11,2.11,0,0,0-.5,1.4v4.846H64.132V11.126q0-1.076-.066-2.338h1.6l.085,1.277h.05a2.624,2.624,0,0,1,.941-.986,3.07,3.07,0,0,1,1.647-.459,2.608,2.608,0,0,1,1.9.74,3.6,3.6,0,0,1,.941,2.707Z" transform="translate(-28.723 -5.042)" fill="#fff"/>
      <path id="Path_3009" data-name="Path 3009" d="M71.856,18.476H70.041V6.556h1.815Z" transform="translate(-24.342 -6.556)" fill="#fff"/>
      <path id="Path_3010" data-name="Path 3010" d="M80.644,12.807A4.482,4.482,0,0,1,79.567,15.9a3.844,3.844,0,0,1-2.993,1.245,3.647,3.647,0,0,1-2.867-1.194,4.35,4.35,0,0,1-1.066-3.009,4.438,4.438,0,0,1,1.1-3.11,3.816,3.816,0,0,1,2.966-1.21A3.741,3.741,0,0,1,79.6,9.816,4.314,4.314,0,0,1,80.644,12.807Zm-1.886.059a3.7,3.7,0,0,0-.487-1.94,1.791,1.791,0,0,0-1.628-.978,1.819,1.819,0,0,0-1.666.978A3.745,3.745,0,0,0,74.49,12.9a3.7,3.7,0,0,0,.487,1.94,1.833,1.833,0,0,0,1.648.978,1.81,1.81,0,0,0,1.628-.995A3.657,3.657,0,0,0,78.758,12.866Z" transform="translate(-22.435 -5.04)" fill="#fff"/>
      <path id="Path_3011" data-name="Path 3011" d="M85.168,16.96H83.537l-.135-.941h-.05a2.8,2.8,0,0,1-2.387,1.127,2.463,2.463,0,0,1-1.865-.74,2.321,2.321,0,0,1-.64-1.664,2.538,2.538,0,0,1,1.253-2.286,6.5,6.5,0,0,1,3.524-.773V11.53q0-1.615-1.7-1.614a3.8,3.8,0,0,0-2.13.6l-.369-1.193a5.24,5.24,0,0,1,2.8-.705q3.2,0,3.207,3.38v3.009A12.762,12.762,0,0,0,85.168,16.96Zm-1.886-2.808v-1.26q-3.006-.052-3.006,1.647a1.231,1.231,0,0,0,.348.959,1.271,1.271,0,0,0,.887.319,1.835,1.835,0,0,0,1.111-.378,1.551,1.551,0,0,0,.659-1.286Z" transform="translate(-18.168 -5.04)" fill="#fff"/>
      <path id="Path_3012" data-name="Path 3012" d="M91.585,18.476H89.973l-.085-1.312h-.05a2.716,2.716,0,0,1-2.624,1.5,3.075,3.075,0,0,1-2.454-1.16,4.518,4.518,0,0,1-.974-3.009,4.737,4.737,0,0,1,1.059-3.212,3.256,3.256,0,0,1,2.522-1.144,2.449,2.449,0,0,1,2.3,1.109H89.7V6.556h1.818v9.719Q91.521,17.468,91.585,18.476ZM89.7,15.03V13.668a2.673,2.673,0,0,0-.05-.572A2.069,2.069,0,0,0,89,12a1.786,1.786,0,0,0-1.215-.445,1.864,1.864,0,0,0-1.6.808,3.461,3.461,0,0,0-.582,2.068,3.227,3.227,0,0,0,.558,1.967,1.87,1.87,0,0,0,1.588.806,1.75,1.75,0,0,0,1.435-.673A2.239,2.239,0,0,0,89.7,15.03Z" transform="translate(-14.263 -6.556)" fill="#fff"/>
      <path id="Path_3013" data-name="Path 3013" d="M100.634,12.807A4.482,4.482,0,0,1,99.557,15.9a3.839,3.839,0,0,1-2.993,1.245A3.657,3.657,0,0,1,93.7,15.952a4.35,4.35,0,0,1-1.066-3.009,4.438,4.438,0,0,1,1.1-3.11A3.819,3.819,0,0,1,96.7,8.623a3.733,3.733,0,0,1,2.891,1.193A4.314,4.314,0,0,1,100.634,12.807Zm-1.882.059a3.7,3.7,0,0,0-.487-1.94,1.8,1.8,0,0,0-1.631-.978,1.826,1.826,0,0,0-1.666.978A3.745,3.745,0,0,0,94.48,12.9a3.7,3.7,0,0,0,.487,1.94,1.856,1.856,0,0,0,3.279-.017A3.688,3.688,0,0,0,98.751,12.866Z" transform="translate(-7.776 -5.04)" fill="#fff"/>
      <path id="Path_3014" data-name="Path 3014" d="M105.912,16.963H104.1v-4.68q0-2.163-1.648-2.163a1.633,1.633,0,0,0-1.31.595,2.1,2.1,0,0,0-.5,1.4v4.846H98.816V11.126q0-1.076-.064-2.338h1.595l.085,1.277h.05a2.651,2.651,0,0,1,.941-.986,3.076,3.076,0,0,1,1.648-.459,2.606,2.606,0,0,1,1.9.74,3.589,3.589,0,0,1,.941,2.707Z" transform="translate(-3.287 -5.042)" fill="#fff"/>
      <path id="Path_3015" data-name="Path 3015" d="M112.041,10.941h-2V14.91c0,1.009.355,1.513,1.059,1.513a3.2,3.2,0,0,0,.809-.085l.047,1.378a4.081,4.081,0,0,1-1.411.2,2.172,2.172,0,0,1-1.68-.655,3.2,3.2,0,0,1-.607-2.2v-4.12h-1.194V9.58h1.194v-1.5l1.78-.537V9.578h2v1.362Z" transform="translate(2.809 -5.831)" fill="#fff"/>
      <path id="Path_3016" data-name="Path 3016" d="M118.486,18.476h-1.818V13.831q0-2.2-1.645-2.2a1.734,1.734,0,0,0-1.733,1.274,2.283,2.283,0,0,0-.085.653v4.914H111.39V6.556H113.2V11.48h.035a2.746,2.746,0,0,1,2.454-1.343,2.532,2.532,0,0,1,1.869.74,3.721,3.721,0,0,1,.924,2.74v4.859Z" transform="translate(5.981 -6.556)" fill="#fff"/>
      <path id="Path_3017" data-name="Path 3017" d="M124.28,12.495a4.387,4.387,0,0,1-.068.823h-5.448a2.382,2.382,0,0,0,.789,1.849,2.706,2.706,0,0,0,1.784.572,6.018,6.018,0,0,0,2.2-.387l.284,1.262a6.841,6.841,0,0,1-2.742.5A3.96,3.96,0,0,1,118.1,16a4.119,4.119,0,0,1-1.083-3,4.676,4.676,0,0,1,1.009-3.077,3.474,3.474,0,0,1,2.857-1.31,3.039,3.039,0,0,1,2.671,1.31A4.362,4.362,0,0,1,124.28,12.495Zm-1.733-.47a2.446,2.446,0,0,0-.352-1.4,1.587,1.587,0,0,0-1.446-.757,1.725,1.725,0,0,0-1.446.74,2.75,2.75,0,0,0-.539,1.413h3.782Z" transform="translate(10.107 -5.047)" fill="#fff"/>
    </g>
  </g>
</svg>
