<svg xmlns="http://www.w3.org/2000/svg" width="34.475" height="41.319" viewBox="0 0 34.475 41.319">
  <g id="shield-check" transform="translate(-2 -0.03)">
    <path id="Path_177" data-name="Path 177" d="M14,14.988l-3.034-3.149L7.24,15.422l3.792,3.942a4.073,4.073,0,0,0,2.886,1.276h.064a4.082,4.082,0,0,0,2.865-1.186L25.5,10.8,21.844,7.141Z" transform="translate(3.793 5.147)"/>
    <path id="Path_178" data-name="Path 178" d="M19.1,41.349l-.915-.409C17.526,40.64,2,33.592,2,20.664V9.5A5.171,5.171,0,0,1,5.537,4.6L19.238.03,32.94,4.6a5.161,5.161,0,0,1,3.535,4.9V20.664c0,14.719-15.75,20.137-16.421,20.361Zm.134-35.868L7.171,9.5V20.664c0,8.05,9.212,13.526,12.2,15.088,3-1.253,11.934-5.766,11.934-15.088V9.5Z" transform="translate(0 0)"/>
  </g>
</svg>
